<?xml version="1.0" encoding="UTF-8" standalone="no"?>
<!-- Created with Inkscape (http://www.inkscape.org/) -->

<svg
   xmlns:osb="http://www.openswatchbook.org/uri/2009/osb"
   xmlns:dc="http://purl.org/dc/elements/1.1/"
   xmlns:cc="http://creativecommons.org/ns#"
   xmlns:rdf="http://www.w3.org/1999/02/22-rdf-syntax-ns#"
   xmlns:svg="http://www.w3.org/2000/svg"
   xmlns="http://www.w3.org/2000/svg"
   xmlns:xlink="http://www.w3.org/1999/xlink"
   xmlns:sodipodi="http://sodipodi.sourceforge.net/DTD/sodipodi-0.dtd"
   xmlns:inkscape="http://www.inkscape.org/namespaces/inkscape"
   width="128.40688mm"
   height="89.394699mm"
   viewBox="0 0 128.40688 89.394699"
   version="1.1"
   id="svg8"
   inkscape:export-filename="/home/gunter/Pictures/spotify_rewind.png"
   inkscape:export-xdpi="85.239952"
   inkscape:export-ydpi="85.239952"
   inkscape:version="0.92.4 5da689c313, 2019-01-14"
   sodipodi:docname="spotify_rewind_transparent.svg">
  <defs
     id="defs2">
    <linearGradient
       id="linearGradient4842"
       osb:paint="solid">
      <stop
         style="stop-color:#4247e1;stop-opacity:1;"
         offset="0"
         id="stop4840" />
    </linearGradient>
    <linearGradient
       inkscape:collect="always"
       xlink:href="#linearGradient4842"
       id="linearGradient4846"
       x1="-119.30236"
       y1="170.00159"
       x2="224.99622"
       y2="170.00159"
       gradientUnits="userSpaceOnUse" />
  </defs>
  <sodipodi:namedview
     id="base"
     pagecolor="#ffffff"
     bordercolor="#666666"
     borderopacity="1.0"
     inkscape:pageopacity="0.0"
     inkscape:pageshadow="2"
     inkscape:zoom="0.49497475"
     inkscape:cx="315.27844"
     inkscape:cy="58.004919"
     inkscape:document-units="mm"
     inkscape:current-layer="layer1"
     showgrid="false"
     inkscape:window-width="1916"
     inkscape:window-height="1041"
     inkscape:window-x="0"
     inkscape:window-y="18"
     inkscape:window-maximized="0"
     fit-margin-top="0"
     fit-margin-left="0"
     fit-margin-right="0"
     fit-margin-bottom="0" />
  <metadata
     id="metadata5">
    <rdf:RDF>
      <cc:Work
         rdf:about="">
        <dc:format>image/svg+xml</dc:format>
        <dc:type
           rdf:resource="http://purl.org/dc/dcmitype/StillImage" />
        <dc:title></dc:title>
      </cc:Work>
    </rdf:RDF>
  </metadata>
  <g
     inkscape:label="Layer 1"
     inkscape:groupmode="layer"
     id="layer1"
     transform="translate(-43.42218,-81.244594)">
    <rect
       style="fill:#222222;fill-opacity:1;stroke-width:0.36940041"
       id="rect4894"
       width="173.72519"
       height="146.4637"
       x="297.73825"
       y="-51.519463"
       inkscape:export-xdpi="85.239952"
       inkscape:export-ydpi="85.239952" />
    <g
       id="g3983"
       transform="matrix(0.1836889,-0.04921929,0.04921929,0.1836889,58.248771,109.18313)"
       style="fill:#2947e1;fill-opacity:1"
       inkscape:export-xdpi="85.239952"
       inkscape:export-ydpi="85.239952">
      <path
         d="m 217.18313,15.699331 c -5.32212,-2.906739 -11.8772,-2.320133 -16.60064,1.487402 L 63.62147,127.59016 75.76799,14.454328 C 76.41563,8.4219948 73.36643,2.5931898 68.04022,-0.31298117 62.71533,-3.2220292 56.16104,-2.6333282 51.43958,1.1744208 L -113.71552,134.30402 c -3.09721,2.49665 -5.07643,6.12107 -5.50107,10.07634 -0.42465,3.95528 0.73897,7.91813 3.23661,11.01545 l 133.130476,165.1562 c 2.547244,3.15997 6.198634,5.08475 10.080324,5.50149 1.92096,0.20625 3.89875,0.0424 5.82514,-0.52318 5.82083,-1.7104 10.03887,-6.75898 10.6864,-12.79032 L 55.88909,199.60218 166.2934,336.5643 c 2.54624,3.15986 6.19863,5.08475 10.07933,5.50139 1.92196,0.20634 3.89974,0.0425 5.82612,-0.52305 5.82085,-1.7104 10.03888,-6.75898 10.68642,-12.79032 L 224.90989,30.466534 c 0.64865,-6.032227 -2.40067,-11.860037 -7.72676,-14.767203 z"
         id="XMLID_241_"
         inkscape:connector-curvature="0"
         style="fill:#2947e1;fill-opacity:1" />
      <g
         id="g3930"
         style="fill:#2947e1;fill-opacity:1" />
      <g
         id="g3932"
         style="fill:#2947e1;fill-opacity:1" />
      <g
         id="g3934"
         style="fill:#2947e1;fill-opacity:1" />
      <g
         id="g3936"
         style="fill:#2947e1;fill-opacity:1" />
      <g
         id="g3938"
         style="fill:#2947e1;fill-opacity:1" />
      <g
         id="g3940"
         style="fill:#2947e1;fill-opacity:1" />
      <g
         id="g3942"
         style="fill:#2947e1;fill-opacity:1" />
      <g
         id="g3944"
         style="fill:#2947e1;fill-opacity:1" />
      <g
         id="g3946"
         style="fill:#2947e1;fill-opacity:1" />
      <g
         id="g3948"
         style="fill:#2947e1;fill-opacity:1" />
      <g
         id="g3950"
         style="fill:#2947e1;fill-opacity:1" />
      <g
         id="g3952"
         style="fill:#2947e1;fill-opacity:1" />
      <g
         id="g3954"
         style="fill:#2947e1;fill-opacity:1" />
      <g
         id="g3956"
         style="fill:#2947e1;fill-opacity:1" />
      <g
         id="g3958"
         style="fill:#2947e1;fill-opacity:1" />
    </g>
    <g
       transform="matrix(0.06562572,0.24491853,0.24491853,-0.06562572,-167.24786,-150.40195)"
       inkscape:label="ink_ext_XXXXXX"
       id="g4012"
       style="fill:#2947e1;fill-opacity:1"
       inkscape:export-xdpi="85.239952"
       inkscape:export-ydpi="85.239952">
      <g
         transform="scale(0.1)"
         id="g4014"
         style="fill:#2947e1;fill-opacity:1">
        <g
           id="g4033"
           transform="matrix(0.33697098,0,0,0.33697098,6405.106,5960.4723)"
           style="fill:#2947e1;fill-opacity:1">
          <path
             d="m 27325.84,10150.055 c -2.2,-536.5205 -564.7,-865.0605 -1035.9,-598.4805 -319.5,180.81 -646.6,344.67 -987.3,481.2705 -676.9,271.37 -1378.44,453.99 -2095.47,580.48 -499.11,88.04 -1001.97,146.33 -1507.58,176.7 -525.71,31.57 -1051.77,35.29 -1578.26,8.04 -603.24,-31.23 -1201.73,-97.47 -1792.31,-225.03 -217.93,-47.07 -433.31,-106.42 -648.83,-164.01 -132.16,-35.32 -262.41,-39.82 -394.06,-1.31 -288.14,84.31 -486.77,342.47 -495.31,644.78 -8.29,293.65 172.87,566.65 457.54,660.45 208.41,68.7 422.28,122.7 636.28,172.2 529.75,122.4 1066.91,198.1 1608.39,247.6 574.9,52.4 1150.86,69.3 1727.22,52.8 1419.94,-40.6 2812.26,-248.3 4159.69,-713.4 549.4,-189.71 1078.2,-425.13 1580.8,-718.37 179.1,-104.55 299.4,-251.88 345.2,-455.68 10.9,-48.39 13.5,-98.65 19.9,-148.04"
             style="fill:#2947e1;fill-opacity:1;fill-rule:evenodd;stroke:none"
             id="path4018"
             inkscape:connector-curvature="0" />
          <path
             d="m 20618.38,8495.0845 c -846.35,-3.55 -1713.32,-108.46 -2560.14,-359.78 -137.99,-40.95 -276.46,-43.7 -411.66,11.07 -220.02,89.13 -363.17,309.61 -355.41,542.92 8.09,243.36 156.48,455.32 391.1,526.95 238.74,72.89 481.07,136.09 724.78,190.21 599.96,133.25 1208.02,203.71 1822.43,227.03 1321.81,50.17 2613.05,-120.82 3872.74,-524.57 637.02,-204.15 1246.32,-471.45 1821.82,-813.75 28.7,-17.03 57.1,-34.43 85.5,-51.8 300.2,-183.38 336,-552.56 192.9,-787.79 -163.7,-268.97 -504.1,-352.61 -787,-193.05 -159.6,90.02 -317.3,183.86 -480.5,267.02 -747.93,381.23 -1540.96,628.36 -2363.86,784.12 -633.58,119.93 -1273.1,178.55 -1952.7,181.42"
             style="fill:#2947e1;fill-opacity:1;fill-rule:evenodd;stroke:none"
             id="path4020"
             inkscape:connector-curvature="0" />
          <path
             d="m 20750.7,7239.8845 c 974.26,-10.26 1927.33,-141.94 2852.27,-453.88 510.19,-172.05 997.37,-394.64 1460.07,-670.29 40.1,-23.87 80.8,-47.37 117.8,-75.47 186.7,-141.8 235.2,-398.5 115,-600.6 -116.5,-196 -363.8,-274.9 -575.3,-181.5 -42.4,18.7 -82.2,43.9 -122.3,67.7 -784.17,464.8 -1630.39,752.7 -2529.89,890.49 -551.96,84.52 -1107,113.83 -1664.33,91.93 -720.96,-28.35 -1432.86,-128.37 -2137.19,-284.32 -71.14,-15.7 -144.33,-30 -216.72,-30.8 -218.07,-2.4 -402.16,152.29 -440.44,362 -40.53,222.08 69.48,430.22 273.16,512.09 42.99,17.29 88.88,28.34 134.27,38.54 576.12,129.34 1157.64,227.15 1746.04,276.92 328.45,27.79 658.33,38.69 987.56,57.19"
             style="fill:#2947e1;fill-opacity:1;fill-rule:evenodd;stroke:none"
             id="path4022"
             inkscape:connector-curvature="0" />
        </g>
      </g>
    </g>
  </g>
</svg>
